<?xml version="1.0" encoding="utf-8"?>
<!-- Generator: Adobe Illustrator 22.1.0, SVG Export Plug-In . SVG Version: 6.00 Build 0)  -->
<svg version="1.1" id="레이어_1" xmlns="http://www.w3.org/2000/svg" xmlns:xlink="http://www.w3.org/1999/xlink" x="0px"
	 y="0px" viewBox="0 0 1024 176.7" style="enable-background:new 0 0 1024 176.7;" xml:space="preserve">
<style type="text/css">
	.st0{fill:#2E3850;}
</style>
<polygon class="st0" points="119.7,34.1 148.9,34.1 179.7,109.3 181.1,109.3 211.9,34.1 241.1,34.1 241.1,146.1 218.1,146.1 
	218.1,73.2 217.2,73.2 188.2,145.5 172.6,145.5 143.6,72.9 142.7,72.9 142.7,146.1 119.7,146.1 "/>
<path class="st0" d="M336.9,146.1h25.4l-38.6-112h-30.5l-38.7,112h25.4l8.3-25.5h40.4L336.9,146.1z M294.2,102.1L308,59.7h0.9
	l13.8,42.4H294.2z"/>
<rect x="375.8" y="34.1" class="st0" width="23.7" height="112"/>
<polygon class="st0" points="419,146.1 419,34.1 442.7,34.1 442.7,126.6 490.7,126.6 490.7,146.1 "/>
<path class="st0" d="M586,52.3c-3.2-5.7-7.7-10.2-13.7-13.4c-6-3.2-13.2-4.8-21.7-4.8h-44.2v112h23.7v-36.3H550
	c8.6,0,15.9-1.6,22-4.8c6.1-3.2,10.7-7.6,13.9-13.3c3.2-5.7,4.8-12.3,4.8-19.7C590.7,64.6,589.2,58,586,52.3 M564.1,81.8
	c-1.5,2.8-3.7,5-6.7,6.6c-3,1.6-6.7,2.4-11.3,2.4h-16.1V53.4h16c4.6,0,8.4,0.8,11.4,2.3c3,1.5,5.2,3.7,6.7,6.5
	c1.5,2.8,2.2,6,2.2,9.8C566.3,75.7,565.6,79,564.1,81.8"/>
<polygon class="st0" points="606.2,146.1 606.2,34.1 629.9,34.1 629.9,126.6 677.9,126.6 677.9,146.1 "/>
<path class="st0" d="M762.8,34.1h23.7v72.7c0,8.2-1.9,15.3-5.8,21.4c-3.9,6.1-9.3,10.9-16.3,14.3c-7,3.4-15.1,5.1-24.3,5.1
	c-9.3,0-17.4-1.7-24.4-5.1c-7-3.4-12.4-8.2-16.2-14.3c-3.9-6.1-5.8-13.3-5.8-21.4V34.1h23.7v70.7c0,4.3,0.9,8.1,2.8,11.4
	c1.9,3.3,4.5,5.9,8,7.8c3.4,1.9,7.4,2.8,12,2.8c4.6,0,8.6-0.9,12-2.8c3.4-1.9,6.1-4.5,7.9-7.8c1.9-3.3,2.8-7.1,2.8-11.4V34.1z"/>
<path class="st0" d="M880.2,70.3c-0.8-2.7-1.8-5-3.2-7.1c-1.4-2.1-3.1-3.8-5.1-5.3c-2-1.4-4.2-2.5-6.8-3.3c-2.5-0.8-5.3-1.1-8.4-1.1
	c-5.7,0-10.7,1.4-15.1,4.3c-4.3,2.8-7.7,7-10.1,12.4c-2.4,5.4-3.6,12-3.6,19.8c0,7.8,1.2,14.4,3.6,19.9c2.4,5.5,5.7,9.6,10.1,12.5
	c4.3,2.9,9.5,4.3,15.4,4.3c5.4,0,9.9-1,13.8-2.9c3.8-1.9,6.7-4.6,8.8-8.1s3-7.6,3-12.4l0,0.7h-24.1V86.1h46.9v14.1
	c0,9.8-2.1,18.3-6.2,25.4c-4.2,7.1-9.9,12.5-17.2,16.3c-7.3,3.8-15.6,5.7-25.1,5.7c-10.5,0-19.7-2.3-27.7-7
	c-8-4.6-14.1-11.3-18.6-19.9c-4.4-8.6-6.6-18.8-6.6-30.6c0-9.1,1.3-17.2,4-24.3c2.6-7.1,6.4-13.2,11.1-18.1
	c4.8-5,10.3-8.7,16.7-11.3c6.3-2.6,13.2-3.9,20.6-3.9c6.3,0,12.3,0.9,17.7,2.8c5.5,1.8,10.3,4.4,14.6,7.8c4.2,3.4,7.7,7.3,10.4,12
	c2.7,4.6,4.4,9.7,5.2,15.2H880.2z"/>
</svg>
