<?xml version="1.0" encoding="UTF-8"?>
<svg width="140px" height="130px" viewBox="0 0 140 130" version="1.1" xmlns="http://www.w3.org/2000/svg" xmlns:xlink="http://www.w3.org/1999/xlink">
    <title>worktype_overwork</title>
    <g id="mailing" stroke="none" stroke-width="1" fill="none" fill-rule="evenodd">
        <g transform="translate(-213.000000, -36.000000)" id="worktype_overwork">
            <g transform="translate(213.000000, 36.000000)">
                <path d="M4.28551724,8.57103448 C3.19022989,8.57103448 2.09344828,8.98793103 1.25666667,9.8262069 C0.418390805,10.6644828 0,11.7597701 0,12.8550575 L0,125.712989 C0,126.80977 0.418390805,127.903563 1.25666667,128.741839 C2.09344828,129.580115 3.19022989,129.997011 4.28551724,129.997011 L88.5733333,129.997011 C89.6686207,129.997011 90.7654023,129.580115 91.6021839,128.741839 C92.4404598,127.903563 92.8588506,126.80977 92.8588506,125.712989 L92.8588506,12.8550575 C92.8588506,11.7597701 92.4404598,10.6614943 91.6021839,9.8262069 C90.7654023,8.98793103 89.6686207,8.57103448 88.5733333,8.57103448 L4.28551724,8.57103448" id="Fill-434" fill="#343B43"></path>
                <polygon id="Fill-435" fill="#FFFFFF" points="10.0010345 119.997471 82.8578161 119.997471 82.8578161 8.57103448 10.0010345 8.57103448"></polygon>
                <polygon id="Fill-436" fill="#CCCBCA" points="17.6411494 83.442069 75.2177011 83.442069 75.2177011 78.6350575 17.6411494 78.6350575"></polygon>
                <polygon id="Fill-437" fill="#CCCBCA" points="17.6411494 93.0516092 75.2177011 93.0516092 75.2177011 88.2475862 17.6411494 88.2475862"></polygon>
                <polygon id="Fill-438" fill="#CCCBCA" points="17.6411494 102.665632 46.4294253 102.665632 46.4294253 97.8586207 17.6411494 97.8586207"></polygon>
                <polygon id="Fill-439" fill="#343B43" points="30.6725287 35.3809195 62.1863218 35.3809195 62.1863218 30.5754023 30.6725287 30.5754023"></polygon>
                <g id="check_circle_outline-copy-4" transform="translate(34.367816, 43.333333)" fill="#2962FF" fill-rule="nonzero">
                    <path d="M11.954023,0 C5.35199839,0 0,5.35199839 0,11.954023 C0,18.5560476 5.35199839,23.908046 11.954023,23.908046 C18.5560476,23.908046 23.908046,18.5560476 23.908046,11.954023 C23.8890057,5.35990122 18.5481448,0.0190402475 11.954023,0 M11.954023,21.5172414 C6.67240331,21.5172414 2.3908046,17.2356427 2.3908046,11.954023 C2.3908046,6.67240331 6.67240331,2.3908046 11.954023,2.3908046 C17.2356427,2.3908046 21.5172414,6.67240331 21.5172414,11.954023 C21.5099982,17.2326395 17.2326395,21.5099982 11.954023,21.5172414 M17.4409195,6.67034483 L9.56321839,14.548046 L6.46712644,11.463908 L4.7816092,13.1494253 L9.56321839,17.9310345 L19.1264368,8.36781609 L17.4409195,6.67034483 Z" id="prefix__check-circle-outline"></path>
                </g>
                <path d="M42.7565517,8.57103448 C42.7565517,6.54632184 44.4032184,4.89517241 46.4294253,4.89517241 C48.4556322,4.89517241 50.1022989,6.54632184 50.1022989,8.57103448 L42.7565517,8.57103448 Z M55.0004598,8.57103448 C55.0004598,3.83425287 51.1617241,0 46.4294253,0 C41.6956322,0 37.8583908,3.83425287 37.8583908,8.57103448 L30.7158621,8.57103448 L30.7158621,18.5705747 L62.1429885,18.5705747 L62.1429885,8.57103448 L55.0004598,8.57103448 L55.0004598,8.57103448 Z" id="Fill-442" fill="#343B43"></path>
                <g id="Group" transform="translate(102.812529, 72.575402) rotate(-140.000000) translate(-102.812529, -72.575402) translate(96.312529, 22.575402)">
                    <polygon id="Fill-424" fill="#4275FF" points="0.00747126437 87.6483908 4.31390805 87.6483908 4.31390805 11.1934483 0.00747126437 11.1934483"></polygon>
                    <polygon id="Fill-425" fill="#2962FF" points="4.31390805 87.6483908 8.62781609 87.6483908 8.62781609 11.1934483 4.31390805 11.1934483"></polygon>
                    <polygon id="Fill-426" fill="#0B38B2" points="8.62781609 87.6483908 12.9342529 87.6483908 12.9342529 11.1934483 8.62781609 11.1934483"></polygon>
                    <polyline id="Fill-427" fill="#E6E6E6" points="12.9387356 11.1934483 8.62034483 3.72816092 4.32137931 3.72517241 0.011954023 11.1934483 12.9387356 11.1934483"></polyline>
                    <polyline id="Fill-428" fill="#CCCCCC" points="12.9387356 11.1934483 8.62781609 11.1934483 7.18735632 3.72517241 8.62034483 3.72816092 12.9387356 11.1934483"></polyline>
                    <polyline id="Fill-429" fill="#343B43" points="8.62034483 3.72816092 6.46563218 3.55271368e-14 4.32137931 3.72517241 8.62034483 3.72816092"></polyline>
                    <polygon id="Fill-430" fill="#E6E5E5" points="8.62333333 91.9563218 12.9312644 91.9563218 12.9312644 87.6483908 8.62333333 87.6483908"></polygon>
                    <polyline id="Fill-431" fill="#FFFFFF" points="8.62632184 91.9533333 0.00747126437 91.9563218 0.00747126437 87.6483908 8.62632184 87.6483908 8.62632184 91.9533333"></polyline>
                    <path d="M12.9297701,92.9604598 L12.9297701,91.9563218 L8.62034483,91.9563218 L8.62034483,92.9604598 C8.62034483,94.6056322 7.99574713,96.2642529 6.7345977,97.5268966 C6.02333333,98.2277011 5.19551724,98.7447126 4.31241379,99.0450575 C5.01022989,99.2931034 5.73344828,99.4216092 6.46563218,99.4216092 C8.12425287,99.4216092 9.76942529,98.788046 11.044023,97.5268966 C12.3051724,96.2672414 12.9297701,94.6056322 12.9297701,92.9604598" id="Fill-432" fill="#343B43"></path>
                    <path d="M8.62034483,92.9604598 L8.62034483,91.9563218 L0,91.9563218 L0.00149425287,92.9604598 C0.00149425287,94.6056322 0.636551724,96.2642529 1.89770115,97.5268966 C2.59701149,98.2247126 3.42781609,98.7327586 4.31241379,99.0450575 C5.19551724,98.7447126 6.02333333,98.2277011 6.7345977,97.5268966 C7.99574713,96.2642529 8.62034483,94.6056322 8.62034483,92.9604598" id="Fill-433" fill="#495057"></path>
                </g>
            </g>
        </g>
    </g>
</svg>