<?xml version="1.0" encoding="utf-8"?>
<!-- Generator: Adobe Illustrator 24.2.3, SVG Export Plug-In . SVG Version: 6.00 Build 0)  -->
<svg version="1.1" id="f20e0c25-d928-42cc-98d1-13cc230663ea"
	 xmlns="http://www.w3.org/2000/svg" xmlns:xlink="http://www.w3.org/1999/xlink" x="0px" y="0px" viewBox="0 0 600 600"
	 style="enable-background:new 0 0 600 600;" xml:space="preserve">
<style type="text/css">
	.st0{fill:#E0E0E0;}
	.st1{opacity:0.5;}
	.st2{fill:url(#SVGID_1_);}
	.st3{fill:#FAFAFA;}
	.st4{fill:url(#SVGID_2_);}
	.st5{fill:url(#SVGID_3_);}
	.st6{fill:#2962FF;}
	.st7{fill:url(#SVGID_4_);}
	.st8{fill:#FFFFFF;}
	.st9{fill:url(#SVGID_5_);}
	.st10{fill:url(#SVGID_6_);}
	.st11{fill:#E6E6E6;}
	.st12{fill:none;stroke:#7983A6;stroke-miterlimit:10;}
	.st13{fill:none;stroke:#7FA1FF;stroke-miterlimit:10;}
	.st14{fill:none;stroke:#7FA1FF;stroke-miterlimit:10;stroke-dasharray:11.78,11.78;}
	.st15{fill:#6D87D1;}
	.st16{fill:#263238;}
	.st17{fill:#EE664C;}
	.st18{fill:#3AD29F;}
	.st19{fill:#F5A394;}
	.st20{fill:#89E4C5;}
	.st21{fill:#7FA1FF;}
</style>
<rect x="87.4" y="52.8" transform="matrix(0.9777 -0.2098 0.2098 0.9777 -57.9989 63.4214)" class="st0" width="365.1" height="504.5"/>
<g class="st1">
	
		<linearGradient id="SVGID_1_" gradientUnits="userSpaceOnUse" x1="680.0128" y1="778.1821" x2="680.0128" y2="1265.7659" gradientTransform="matrix(0.9777 -0.2098 -0.2098 -0.9777 -180.4656 1446.933)">
		<stop  offset="0" style="stop-color:#808080;stop-opacity:0.25"/>
		<stop  offset="0.54" style="stop-color:#808080;stop-opacity:0.12"/>
		<stop  offset="1" style="stop-color:#808080;stop-opacity:0.1"/>
	</linearGradient>
	<polygon class="st2" points="46.4,103.8 391.3,29.7 493.6,506.4 148.7,580.4 	"/>
</g>
<rect x="98.1" y="65" transform="matrix(0.9777 -0.2098 0.2098 0.9777 -57.6395 63.3944)" class="st3" width="343.8" height="476.7"/>
<linearGradient id="SVGID_2_" gradientUnits="userSpaceOnUse" x1="680.4745" y1="1241.4294" x2="680.4745" y2="1282.7509" gradientTransform="matrix(0.9777 -0.2098 -0.2098 -0.9777 -180.4662 1446.9336)">
	<stop  offset="0" style="stop-color:#808080;stop-opacity:0.25"/>
	<stop  offset="0.54" style="stop-color:#808080;stop-opacity:0.12"/>
	<stop  offset="1" style="stop-color:#808080;stop-opacity:0.1"/>
</linearGradient>
<polygon class="st4" points="132.4,67.8 299.1,32.1 307.8,72.5 141,108.3 "/>
<linearGradient id="SVGID_3_" gradientUnits="userSpaceOnUse" x1="680.4019" y1="1274.2894" x2="680.4019" y2="1323.0708" gradientTransform="matrix(0.9777 -0.2098 -0.2098 -0.9777 -180.4655 1446.9286)">
	<stop  offset="0" style="stop-color:#808080;stop-opacity:0.25"/>
	<stop  offset="0.54" style="stop-color:#808080;stop-opacity:0.12"/>
	<stop  offset="1" style="stop-color:#808080;stop-opacity:0.1"/>
</linearGradient>
<path class="st5" d="M207.2,10.5c-12.9,2.8-21.1,15.7-18.2,28.8c2.8,13.1,15.5,21.6,28.4,18.9c12.9-2.8,21.1-15.7,18.2-28.8
	C232.7,16.3,220.1,7.8,207.2,10.5z M215.3,48.2c-7.6,1.8-15.2-2.8-17-10.4s2.8-15.2,10.4-17c7.6-1.8,15.2,2.8,17,10.4
	c0,0.1,0,0.2,0.1,0.3C227.5,39,222.9,46.4,215.3,48.2L215.3,48.2z"/>
<rect x="136" y="47.8" transform="matrix(0.9777 -0.2098 0.2098 0.9777 -9.2921 47.5402)" class="st6" width="166.9" height="39.5"/>
<path class="st6" d="M207.2,10.5c-12.6,2.7-20.6,15.1-17.9,27.7s15.1,20.6,27.7,17.9s20.6-15.1,17.9-27.7
	C232.2,15.9,219.9,7.8,207.2,10.5L207.2,10.5z M214.9,46.5c-7.3,1.6-14.5-3.1-16-10.4c-1.6-7.3,3.1-14.5,10.4-16
	c7.3-1.6,14.5,3.1,16,10.4l0,0C226.9,37.8,222.3,44.9,214.9,46.5z"/>
<rect x="196.3" y="81.2" class="st0" width="365.2" height="504.5"/>
<g class="st1">
	
		<linearGradient id="SVGID_4_" gradientUnits="userSpaceOnUse" x1="378.9341" y1="658.502" x2="378.9341" y2="1146.0112" gradientTransform="matrix(1 0 0 -1 0 1235.7323)">
		<stop  offset="0" style="stop-color:#808080;stop-opacity:0.25"/>
		<stop  offset="0.54" style="stop-color:#808080;stop-opacity:0.12"/>
		<stop  offset="1" style="stop-color:#808080;stop-opacity:0.1"/>
	</linearGradient>
	<rect x="202.5" y="89.7" class="st7" width="352.9" height="487.5"/>
</g>
<rect x="206.9" y="93.3" class="st8" width="343.9" height="476.7"/>
<linearGradient id="SVGID_5_" gradientUnits="userSpaceOnUse" x1="379.3341" y1="1121.7197" x2="379.3341" y2="1163.041" gradientTransform="matrix(1 0 0 -1 0 1235.7323)">
	<stop  offset="0" style="stop-color:#808080;stop-opacity:0.25"/>
	<stop  offset="0.54" style="stop-color:#808080;stop-opacity:0.12"/>
	<stop  offset="1" style="stop-color:#808080;stop-opacity:0.1"/>
</linearGradient>
<rect x="294.1" y="72.7" class="st9" width="170.5" height="41.4"/>
<linearGradient id="SVGID_6_" gradientUnits="userSpaceOnUse" x1="569.2041" y1="1095.0214" x2="569.2041" y2="1143.8224" gradientTransform="matrix(1 0 0 -1 -189.92 1176.1422)">
	<stop  offset="0" style="stop-color:#808080;stop-opacity:0.25"/>
	<stop  offset="0.54" style="stop-color:#808080;stop-opacity:0.12"/>
	<stop  offset="1" style="stop-color:#808080;stop-opacity:0.1"/>
</linearGradient>
<path class="st10" d="M379.3,32.3c-13.2,0-23.8,10.9-23.8,24.4s10.7,24.4,23.8,24.4c13.1,0,23.8-10.9,23.8-24.4
	S392.5,32.3,379.3,32.3z M379.3,70.8c-7.8,0.2-14.2-5.9-14.5-13.8c-0.2-7.8,5.9-14.2,13.8-14.5c7.9-0.3,14.2,5.9,14.5,13.8
	c0,0.1,0,0.3,0,0.3C393.2,64.4,387,70.7,379.3,70.8L379.3,70.8z"/>
<rect x="295.8" y="70.9" class="st6" width="167" height="39.5"/>
<path class="st6" d="M379.3,32.3c-12.9,0-23.3,10.4-23.3,23.3S366.4,79,379.3,79s23.3-10.4,23.3-23.3l0,0
	C402.7,42.8,392.2,32.3,379.3,32.3z M379.3,69.2c-7.4,0-13.5-6-13.5-13.5s6-13.5,13.5-13.5s13.5,6,13.5,13.5
	C392.8,63.1,386.8,69.1,379.3,69.2C379.3,69.1,379.3,69.1,379.3,69.2L379.3,69.2z"/>
<g>
	<g>
		<path class="st11" d="M233.6,155.2c-1.7,0-3,1.4-3,3s1.4,3,3,3h42.7c1.7,0,3-1.4,3-3s-1.4-3-3-3H233.6z"/>
		<path class="st11" d="M525.8,176.4v56.5H237.9v-29.8c2-1.3,4-2.6,6-3.8c8.6-5.3,17.9-10.2,28-12.1c4.8-0.9,9.7-0.9,14.4-0.2
			c5.1,0.8,9.9,2.6,14.7,4.3c4.7,1.7,9.5,3.5,14.4,4.5c4.8,0.9,9.8,1,14.6,0.3c9.3-1.4,18-5.1,26.6-8.5c8.7-3.4,17.7-6.6,27.1-7
			c9.3-0.4,18.5,1.8,27.3,4.5c18,5.6,36.4,13.8,55.5,8.1c19.4-5.7,37.2-22.3,58.6-17.4C525.5,176.1,525.6,176.2,525.8,176.4z"/>
		<path class="st6" d="M525.8,177.4c-0.2,0.4-0.6,0.5-1,0.4c-2.6-0.6-5.2-0.9-7.8-0.8c-21.1,0.4-37.3,17.4-58,19.9
			c-18.6,2.3-36.1-6.8-53.6-11.5c-9.1-2.5-18.5-3.8-27.8-2.1s-18,5.5-26.7,8.8c-8.4,3.2-17.2,6.3-26.3,6.4c-10,0.2-19.1-4-28.4-7.1
			c-4.8-1.6-9.8-2.9-14.9-3.1c-5-0.1-10,0.7-14.7,2.3c-9.9,3.1-18.8,8.7-27.5,14.3c-0.1,0.1-0.3,0.2-0.5,0.1c-0.5-0.1-0.9-0.5-0.8-1
			c0-0.3,0.2-0.5,0.4-0.6l0.4-0.3c2-1.3,4-2.6,6-3.8c8.6-5.3,17.9-10.2,27.9-12.1c4.8-0.9,9.6-0.9,14.4-0.2c5,0.8,9.9,2.6,14.7,4.3
			c4.7,1.7,9.4,3.5,14.4,4.5c4.8,0.9,9.7,1,14.6,0.3c9.2-1.4,17.9-5.1,26.6-8.5c8.7-3.4,17.7-6.6,27.1-7c9.3-0.4,18.5,1.8,27.3,4.5
			c18,5.6,36.3,13.8,55.4,8.1c19.3-5.7,37.1-22.3,58.5-17.4c0.2,0,0.4,0.2,0.5,0.3C526,176.7,525.9,177.1,525.8,177.4z"/>
		<circle class="st6" cx="277.6" cy="187.8" r="4.2"/>
		<circle class="st6" cx="384" cy="182.4" r="4.2"/>
		<circle class="st6" cx="513.7" cy="177" r="4.2"/>
		<path class="st11" d="M275.2,256.8c-1.7,0-3,1.4-3,3c0,1.7,1.4,3,3,3h42.7c1.7,0,3-1.4,3-3c0-1.7-1.4-3-3-3H275.2z"/>
		
			<ellipse transform="matrix(0.1602 -0.9871 0.9871 0.1602 -48.0818 462.5352)" class="st6" cx="247.8" cy="259.5" rx="11.5" ry="11.5"/>
		<path class="st11" d="M378.2,256.8c-1.7,0-3,1.4-3,3c0,1.7,1.4,3,3,3h42.7c1.7,0,3-1.4,3-3c0-1.7-1.4-3-3-3H378.2z"/>
		<circle class="st6" cx="350.8" cy="259.5" r="11.5"/>
		<path class="st11" d="M481.2,256.8c-1.7,0-3,1.4-3,3c0,1.7,1.4,3,3,3l0,0h42.7c1.7,0,3-1.4,3-3c0-1.7-1.4-3-3-3H481.2z"/>
		<circle class="st6" cx="453.8" cy="259.5" r="11.5"/>
	</g>
	<g>
		<line class="st12" x1="251.9" y1="536.1" x2="505.6" y2="536.1"/>
		<g class="st1">
			<line class="st13" x1="251.9" y1="508.5" x2="255.9" y2="508.5"/>
			<line class="st14" x1="263.8" y1="508.5" x2="497.6" y2="508.5"/>
			<line class="st13" x1="501.5" y1="508.5" x2="505.6" y2="508.5"/>
		</g>
		<g class="st1">
			<line class="st13" x1="251.9" y1="480.9" x2="255.9" y2="480.9"/>
			<line class="st14" x1="263.8" y1="480.9" x2="497.6" y2="480.9"/>
			<line class="st13" x1="501.5" y1="480.9" x2="505.6" y2="480.9"/>
		</g>
		<g class="st1">
			<line class="st13" x1="251.9" y1="453.3" x2="255.9" y2="453.3"/>
			<line class="st14" x1="263.8" y1="453.3" x2="497.6" y2="453.3"/>
			<line class="st13" x1="501.5" y1="453.3" x2="505.6" y2="453.3"/>
		</g>
		<g class="st1">
			<line class="st13" x1="251.9" y1="425.7" x2="255.9" y2="425.7"/>
			<line class="st14" x1="263.8" y1="425.7" x2="497.6" y2="425.7"/>
			<line class="st13" x1="501.5" y1="425.7" x2="505.6" y2="425.7"/>
		</g>
		<g class="st1">
			<rect x="264.5" y="480.9" class="st15" width="18.2" height="55.2"/>
		</g>
		<rect x="315.3" y="453" class="st6" width="18.2" height="83.4"/>
		<g class="st1">
			<rect x="366.1" y="508.2" class="st15" width="18.2" height="28.5"/>
		</g>
		<rect x="416.9" y="424.9" class="st6" width="18.2" height="111.6"/>
		<g class="st1">
			<rect x="467.7" y="451.9" class="st15" width="18.2" height="84.3"/>
		</g>
		<circle class="st6" cx="273.6" cy="548.8" r="4.7"/>
		<circle class="st6" cx="324.7" cy="548.8" r="4.7"/>
		<circle class="st6" cx="375.8" cy="548.8" r="4.7"/>
		<circle class="st6" cx="426.9" cy="548.8" r="4.7"/>
		<circle class="st6" cx="478" cy="548.8" r="4.7"/>
	</g>
	<g>
		<g>
			<path class="st11" d="M279.7,307.6v86.6c23.9,0,43.3-19.4,43.3-43.3S303.6,307.6,279.7,307.6z"/>
			<path class="st11" d="M276.9,309.5c-15,0-28.8,8.5-35.5,21.9l35.5,21V309.5z"/>
			<path class="st6" d="M238.4,332c-10.7,21.4-2.1,47.4,19.3,58.1c6,3,12.7,4.6,19.4,4.6v-39.8L238.4,332z"/>
			<rect x="352.1" y="330.1" class="st11" width="26.5" height="2.4"/>
			<rect x="343.5" y="328.6" class="st6" width="5.2" height="5.2"/>
			<rect x="352.1" y="338" class="st11" width="26.5" height="2.4"/>
			<rect x="343.5" y="336.4" class="st6" width="5.2" height="5.2"/>
			<rect x="352.1" y="345.9" class="st11" width="26.5" height="2.4"/>
			<rect x="343.5" y="344.3" class="st6" width="5.2" height="5.2"/>
			<polygon class="st16" points="265.8,367.3 265.4,366.9 293,339.3 341.1,339.3 341.1,339.8 293.2,339.8 			"/>
		</g>
		<g>
			<rect x="444.5" y="306.3" class="st17" width="10.5" height="10.5"/>
			<rect x="474" y="306.3" class="st18" width="10.5" height="10.5"/>
			<rect x="503.6" y="306.3" class="st6" width="10.5" height="10.5"/>
			<rect x="435" y="334" class="st19" width="88.6" height="15.2"/>
			<rect x="435" y="357.4" class="st20" width="88.6" height="15.2"/>
			<rect x="435" y="380.7" class="st21" width="88.6" height="15.2"/>
			<rect x="435" y="334" class="st17" width="36.6" height="15.2"/>
			<rect x="435" y="357.4" class="st18" width="11.9" height="15.2"/>
			<rect x="435" y="380.7" class="st6" width="59" height="15.2"/>
		</g>
	</g>
</g>
</svg>
