<?xml version="1.0" encoding="utf-8"?>
<!-- Generator: Adobe Illustrator 24.2.3, SVG Export Plug-In . SVG Version: 6.00 Build 0)  -->
<svg version="1.1" id="f20e0c25-d928-42cc-98d1-13cc230663ea"
	 xmlns="http://www.w3.org/2000/svg" xmlns:xlink="http://www.w3.org/1999/xlink" x="0px" y="0px" viewBox="0 0 600 600"
	 style="enable-background:new 0 0 600 600;" xml:space="preserve">
<style type="text/css">
	.st0{fill:#515B60;}
	.st1{fill:#FFFFFF;}
	.st2{fill:#263238;}
	.st3{fill:#FFCB04;}
	.st4{fill:#FFAC06;}
	.st5{fill:#FF8F08;}
	.st6{opacity:0.5;fill:#B26C17;enable-background:new    ;}
	.st7{opacity:0.2;fill:#263238;}
	.st8{fill:#2962FF;}
	.st9{fill:#FAFAFA;}
	.st10{fill:#E0E0E0;}
	.st11{opacity:0.1;}
</style>
<g>
	<g>
		<path class="st0" d="M462.6,469.4H37.9c-15.4,0-27.9-12.5-27.9-27.9V132.8c0-15.4,12.5-27.9,27.9-27.9h424.7
			c15.4,0,27.9,12.5,27.9,27.9v308.7C490.5,456.9,478,469.4,462.6,469.4z"/>
		<path class="st1" d="M242,316.6L21.8,217.9c-7.1-3.2-11.8-10.4-11.8-18.3V125c0-11,9-20.1,20.1-20.1h220.2h220.2
			c11,0,20.1,9,20.1,20.1v74.6c0,7.9-4.7,15.1-11.8,18.3l-220.2,98.7C253.3,319,247.2,319,242,316.6z"/>
		<polygon class="st2" points="250.3,346.1 10,238.4 10,130.7 250.3,130.7 490.5,130.7 490.5,238.4 		"/>
		<path class="st0" d="M242,316.6L21.8,217.9c-7.1-3.2-11.8-10.4-11.8-18.3V125c0-11,9-20.1,20.1-20.1h220.2h220.2
			c11,0,20.1,9,20.1,20.1v74.6c0,7.9-4.7,15.1-11.8,18.3l-220.2,98.7C253.3,319,247.2,319,242,316.6z"/>
	</g>
	<g>
		<path class="st0" d="M304.7,36.9h-109c-15.5,0-28.1,12.6-28.1,28.1v39.8h32.8V70.1H300v34.8h32.8V65
			C332.8,49.5,320.2,36.9,304.7,36.9z"/>
		<rect x="167.7" y="93.7" class="st2" width="32.8" height="11.3"/>
		<rect x="300" y="93.7" class="st2" width="32.8" height="11.3"/>
	</g>
	<path class="st2" d="M281.3,277.7h-55.3c-4.9,0-8.8,3.6-8.8,8v8.6v16.6l0,0v16.6l0,0v16.6l0,0c0,18.3,16.4,33.1,36.5,33.1l0,0
		c20.2,0,36.5-14.8,36.5-33.1l0,0v-16.6l0,0v-16.6l0,0v-16.6v-8.6C290.1,281.4,286.2,277.7,281.3,277.7z"/>
	<g>
		<path class="st3" d="M283.4,291.9h-66.3v-5.5c0-6.1,5-11.2,11.2-11.2h43.9c6.1,0,11.2,5,11.2,11.2V291.9z"/>
		<rect x="217.1" y="291.9" class="st4" width="66.3" height="16.6"/>
		<rect x="217.1" y="308.5" class="st5" width="66.3" height="16.6"/>
		<rect x="217.1" y="308.5" class="st6" width="66.3" height="16.6"/>
		<path class="st4" d="M217.1,325v16.6l0,0c0,18.3,14.8,33.1,33.1,33.1l0,0c18.3,0,33.1-14.8,33.1-33.1l0,0V325H217.1z"/>
		<path class="st3" d="M245.2,333.3h10.2c1.8,0,3.2,1.5,3.2,3.2v10.2c0,1.8-1.4,3.2-3.2,3.2h-10.2c-1.8,0-3.2-1.4-3.2-3.2v-10.2
			C242,334.8,243.4,333.3,245.2,333.3z"/>
		<path class="st6" d="M280.6,342.3c-0.2,10.4-8.5,21.6-13.7,26.1c-3.2,2.8-9.8,6.2-16.6,6.2c18.3,0,33.1-14.8,33.1-33.1v-49.7v-8.6
			c0-4.5-3.6-8-8-8c0,0,5.2,1.9,5.2,11.5L280.6,342.3L280.6,342.3z"/>
	</g>
</g>
<g>
	<circle class="st7" cx="421.8" cy="394.9" r="168.2"/>
	<circle class="st8" cx="421.8" cy="394.9" r="165.4"/>
	<circle class="st9" cx="421.8" cy="394.9" r="131.5"/>
	<rect x="418.1" y="286.6" class="st10" width="7.5" height="116.1"/>
	<g class="st11">
		<rect x="429.7" y="392.1" width="105" height="9.3"/>
		<rect x="381.9" y="341.4" transform="matrix(0.4639 -0.8859 0.8859 0.4639 -128.2923 545.4612)" width="9.3" height="74.6"/>
		<circle cx="421.8" cy="396.7" r="13.9"/>
	</g>
	<rect x="429.7" y="390.2" class="st2" width="105" height="9.3"/>
	
		<rect x="381.9" y="339.6" transform="matrix(0.4639 -0.8859 0.8859 0.4639 -126.6739 544.4497)" class="st2" width="9.3" height="74.6"/>
	<circle class="st2" cx="421.8" cy="394.9" r="13.9"/>
	<g class="st11">
		<path d="M300.6,410.6c0-72.6,58.9-131.5,131.5-131.5c41.3,0,80.2,19.4,105.1,52.4c-22.4-40.7-65.6-68.3-115.3-68.3
			c-72.6,0-131.5,58.9-131.5,131.5c0,28.6,9.3,56.3,26.4,79.1C306.1,454.6,300.6,432.8,300.6,410.6z"/>
	</g>
</g>
</svg>
