<?xml version="1.0" encoding="UTF-8"?>
<svg width="141px" height="130px" viewBox="0 0 141 130" version="1.1" xmlns="http://www.w3.org/2000/svg" xmlns:xlink="http://www.w3.org/1999/xlink">
    <title>worktype_outwork</title>
    <g id="mailing" stroke="none" stroke-width="1" fill="none" fill-rule="evenodd">
        <g id="mailing-outwork" transform="translate(-200.000000, -36.000000)">
            <g id="worktype_outwork" transform="translate(200.000000, 36.000000)">
                <g id="Group" fill-rule="nonzero">
                    <g transform="translate(0.000000, 17.607403)" id="Path">
                        <path d="M117.192805,94.6138996 L7.22421401,94.6138996 C3.23665502,94.6138996 0,91.3772446 0,87.3896856 L0,7.45725317 C0,3.46969418 3.23665502,0.233039162 7.22421401,0.233039162 L117.192805,0.233039162 C121.180364,0.233039162 124.417019,3.46969418 124.417019,7.45725317 L124.417019,87.3896856 C124.417019,91.3772446 121.180364,94.6138996 117.192805,94.6138996 Z" fill="#515B60"></path>
                        <path d="M60.0723172,55.0490286 L3.05540234,29.4924006 C1.21698229,28.6638169 0,26.7995036 0,24.7539376 L0,5.43758044 C0,2.58932402 2.33039162,0.233039162 5.20454128,0.233039162 L62.2214562,0.233039162 L119.238371,0.233039162 C122.086627,0.233039162 124.442912,2.56343078 124.442912,5.43758044 L124.442912,24.7539376 C124.442912,26.7995036 123.22593,28.6638169 121.38751,29.4924006 L64.3705951,55.0490286 C62.9982534,55.6704664 61.4187657,55.6704664 60.0723172,55.0490286 Z" fill="#FFFFFF"></path>
                        <polygon fill="#263238" points="62.2214562 62.6875345 0 34.8005148 0 6.91349513 62.2214562 6.91349513 124.417019 6.91349513 124.417019 34.8005148"></polygon>
                        <path d="M60.0723172,55.0490286 L3.05540234,29.4924006 C1.21698229,28.6638169 0,26.7995036 0,24.7539376 L0,5.43758044 C0,2.58932402 2.33039162,0.233039162 5.20454128,0.233039162 L62.2214562,0.233039162 L119.238371,0.233039162 C122.086627,0.233039162 124.442912,2.56343078 124.442912,5.43758044 L124.442912,24.7539376 C124.442912,26.7995036 123.22593,28.6638169 121.38751,29.4924006 L64.3705951,55.0490286 C62.9982534,55.6704664 61.4187657,55.6704664 60.0723172,55.0490286 Z" fill="#515B60"></path>
                    </g>
                    <g transform="translate(40.652387, 0.000000)">
                        <path d="M35.6549917,0.233039162 L7.43135993,0.233039162 C3.4179077,0.233039162 0.155359441,3.49558742 0.155359441,7.50903965 L0.155359441,17.8145492 L8.64834222,17.8145492 L8.64834222,8.8295949 L34.4380094,8.8295949 L34.4380094,17.8404425 L42.9309922,17.8404425 L42.9309922,7.50903965 C42.9309922,3.49558742 39.668444,0.233039162 35.6549917,0.233039162 Z" id="Path" fill="#515B60"></path>
                        <rect id="Rectangle" fill="#263238" x="0.181252681" y="14.9403996" width="8.49298278" height="2.92593614"></rect>
                        <rect id="Rectangle" fill="#263238" x="34.4380094" y="14.9403996" width="8.49298278" height="2.92593614"></rect>
                    </g>
                    <path d="M70.2483606,62.5839615 L55.9293988,62.5839615 C54.66063,62.5839615 53.6507937,63.5161182 53.6507937,64.6554207 L53.6507937,66.8822394 L53.6507937,71.1805173 L53.6507937,71.1805173 L53.6507937,75.4787951 L53.6507937,75.4787951 L53.6507937,79.777073 L53.6507937,79.777073 C53.6507937,84.5155359 57.897285,88.3477355 63.1018263,88.3477355 L63.1018263,88.3477355 C68.3322608,88.3477355 72.552859,84.5155359 72.552859,79.777073 L72.552859,79.777073 L72.552859,75.4787951 L72.552859,75.4787951 L72.552859,71.1805173 L72.552859,71.1805173 L72.552859,66.8822394 L72.552859,64.6554207 C72.5269657,63.5420114 71.5171294,62.5839615 70.2483606,62.5839615 Z" id="Path" fill="#263238"></path>
                    <g transform="translate(53.599007, 61.884844)">
                        <path d="M17.1931115,4.37595759 L0.0258932402,4.37595759 L0.0258932402,2.95182938 C0.0258932402,1.37234173 1.32055525,0.0517864804 2.92593614,0.0517864804 L14.2930686,0.0517864804 C15.8725562,0.0517864804 17.1931115,1.34644849 17.1931115,2.95182938 L17.1931115,4.37595759 L17.1931115,4.37595759 Z" id="Path" fill="#FFCB04"></path>
                        <rect id="Rectangle" fill="#FFAC06" x="0.0258932402" y="4.37595759" width="17.1672182" height="4.29827787"></rect>
                        <rect id="Rectangle" fill="#FF8F08" x="0.0258932402" y="8.67423546" width="17.1672182" height="4.29827787"></rect>
                        <rect id="Rectangle" fill="#B26C17" opacity="0.5" x="0.0258932402" y="8.67423546" width="17.1672182" height="4.29827787"></rect>
                        <path d="M0.0258932402,12.9466201 L0.0258932402,17.244898 L0.0258932402,17.244898 C0.0258932402,21.9833609 3.85809279,25.8155605 8.59655574,25.8155605 L8.59655574,25.8155605 C13.3350187,25.8155605 17.1672182,21.9833609 17.1672182,17.244898 L17.1672182,17.244898 L17.1672182,12.9466201 L0.0258932402,12.9466201 Z" id="Path" fill="#FFAC06"></path>
                        <path d="M7.30189373,15.095759 L9.94300423,15.095759 C10.4090826,15.095759 10.7715879,15.4841576 10.7715879,15.9243427 L10.7715879,18.5654532 C10.7715879,19.0315315 10.4090826,19.3940369 9.94300423,19.3940369 L7.30189373,19.3940369 C6.83581541,19.3940369 6.47331004,19.0315315 6.47331004,18.5654532 L6.47331004,15.9243427 C6.47331004,15.4841576 6.83581541,15.095759 7.30189373,15.095759 Z" id="Path" fill="#FFCB04"></path>
                        <path d="M16.4681008,17.4261506 C16.4163143,20.1190476 14.2671753,23.0190905 12.9207268,24.1842863 C12.0921432,24.9092971 10.3831893,25.7896672 8.62244898,25.7896672 C13.3609119,25.7896672 17.1931115,21.9574677 17.1931115,17.2190047 L17.1931115,4.35006435 L17.1931115,2.12324569 C17.1931115,0.958049887 16.2609548,0.0517864804 15.1216523,0.0517864804 C15.1216523,0.0517864804 16.4681008,0.543758044 16.4681008,3.0295091 L16.4681008,17.4261506 L16.4681008,17.4261506 Z" id="Path" fill="#B26C17" opacity="0.5"></path>
                    </g>
                </g>
                <g id="Group-2-Copy" transform="translate(84.153031, 52.061347)">
                    <path d="M2.56924076,5.17864804 C1.91259729,5.17864804 1.25505798,5.4284578 0.753393123,5.93076347 C0.250832431,6.43306913 0,7.08937938 0,7.74568963 L0,75.3716113 C0,76.028817 0.250832431,76.6842318 0.753393123,77.1865375 C1.25505798,77.6888432 1.91259729,77.9386529 2.56924076,77.9386529 L53.1012256,77.9386529 C53.7578691,77.9386529 54.4154084,77.6888432 54.9170733,77.1865375 C55.419634,76.6842318 55.6704664,76.028817 55.6704664,75.3716113 L55.6704664,7.74568963 C55.6704664,7.08937938 55.419634,6.43127838 54.9170733,5.93076347 C54.4154084,5.4284578 53.7578691,5.17864804 53.1012256,5.17864804 L2.56924076,5.17864804" id="Fill-434" fill="#343B43"></path>
                    <polygon id="Fill-435" fill="#FFFFFF" points="5.95544524 71.9832077 49.4560887 71.9832077 49.4560887 5.17864804 5.95544524 5.17864804"></polygon>
                    <polygon id="Fill-436" fill="#CCCBCA" points="10.6162285 49.9739535 45.0542379 49.9739535 45.0542379 47.1256971 10.6162285 47.1256971"></polygon>
                    <polygon id="Fill-437" fill="#CCCBCA" points="10.6162285 55.6704664 45.0542379 55.6704664 45.0542379 52.82221 10.6162285 52.82221"></polygon>
                    <polygon id="Fill-438" fill="#CCCBCA" points="10.6162285 61.6259116 27.9646994 61.6259116 27.9646994 58.7776552 10.6162285 58.7776552"></polygon>
                    <polygon id="Fill-439" fill="#343B43" points="18.3842005 21.2324569 37.2862659 21.2324569 37.2862659 18.3842005 18.3842005 18.3842005"></polygon>
                    <g id="check_circle_outline-copy-4" transform="translate(20.714592, 26.152173)" fill="#2962FF" fill-rule="nonzero">
                        <path d="M7.12064105,0 C3.18801959,0 0,3.18801959 0,7.12064105 C0,11.0532625 3.18801959,14.2412821 7.12064105,14.2412821 C11.0532625,14.2412821 14.2412821,11.0532625 14.2412821,7.12064105 C14.2299404,3.19272706 11.048555,0.0113416854 7.12064105,0 M7.12064105,12.8171539 C3.97454388,12.8171539 1.42412821,10.2667382 1.42412821,7.12064105 C1.42412821,3.97454388 3.97454388,1.42412821 7.12064105,1.42412821 C10.2667382,1.42412821 12.8171539,3.97454388 12.8171539,7.12064105 C12.8128394,10.2649493 10.2649493,12.8128394 7.12064105,12.8171539 M10.3890153,3.97331771 L5.69651284,8.66582016 L3.85226681,6.82869477 L2.84825642,7.83270515 L5.69651284,10.6809616 L11.3930257,4.98444873 L10.3890153,3.97331771 Z" id="prefix__check-circle-outline"></path>
                    </g>
                    <path d="M25.6261577,5.13881228 C25.6261577,3.92488435 26.6165569,2.93492835 27.8352332,2.93492835 C29.0539095,2.93492835 30.0443087,3.92488435 30.0443087,5.13881228 L25.6261577,5.13881228 Z M32.9903419,5.13881228 C32.9903419,2.29884803 30.6815075,0 27.8352332,0 C24.9880602,0 22.6801245,2.29884803 22.6801245,5.13881228 L18.3842005,5.13881228 L18.3842005,11.1340933 L37.2862659,11.1340933 L37.2862659,5.13881228 L32.9903419,5.13881228 L32.9903419,5.13881228 Z" id="Fill-442" fill="#343B43"></path>
                </g>
            </g>
        </g>
    </g>
</svg>